<svg version="1.0" xmlns="http://www.w3.org/2000/svg"  width="600.000000pt" height="328.000000pt" viewBox="0 0 600.000000 328.000000"  preserveAspectRatio="xMidYMid meet"> <g transform="translate(0.000000,328.000000) scale(0.100000,-0.100000)" fill="#000000" stroke="none"> <path d="M3031 2785 c0 -25 3 -34 7 -23 6 16 13 14 56 -17 27 -19 50 -36 52 -37 1 -2 -57 -3 -129 -4 -120 0 -140 -3 -220 -30 -66 -23 -90 -27 -97 -19 -7 9 -5 16 5 25 8 7 15 9 15 5 0 -4 6 -3 13 3 25 20 132 43 212 45 65 2 81 5 77 16 -4 11 -20 12 -76 7 -39 -4 -89 -11 -111 -17 -59 -14 -185 -63 -185 -70 0 -4 9 -9 21 -12 11 -3 25 -19 31 -35 l12 -30 45 20 c55 24 162 48 214 48 30 0 40 4 44 20 3 11 10 20 15 20 5 0 7 -4 3 -9 -3 -6 6 -7 22 -2 16 4 36 5 46 3 15 -3 12 -7 -15 -21 -18 -9 -37 -14 -43 -9 -17 15 -25 8 -25 -20 l0 -28 83 40 82 41 -70 54 c-38 30 -73 59 -77 65 -4 6 -7 -7 -7 -29z m-26 -94 c-11 -10 -39 -15 -70 -11 -17 2 -17 3 5 10 36 11 76 12 65 1z m-100 -11 c-3 -5 -21 -10 -38 -9 -31 1 -31 1 -7 9 36 11 52 11 45 0z m-79 -22 c4 -7 3 -8 -4 -4 -6 4 -23 -1 -37 -10 -14 -9 -28 -14 -31 -11 -5 5 43 36 58 37 4 0 10 -5 14 -12z"/> <path d="M3190 2742 c0 -5 20 -23 45 -40 34 -24 43 -27 36 -13 -10 18 -9 18 39 -2 27 -11 46 -25 43 -30 -4 -6 -1 -7 6 -2 15 9 63 -14 55 -27 -3 -4 2 -8 10 -8 9 0 16 -5 16 -11 0 -5 4 -8 9 -5 5 3 20 -3 32 -15 l24 -20 -25 12 -25 12 20 -22 20 -23 -28 13 c-15 7 -27 15 -27 19 0 3 -32 15 -71 25 -39 11 -74 26 -77 33 -4 11 -6 11 -13 0 -6 -9 -11 -10 -16 -2 -5 6 -15 14 -23 17 -11 4 -10 6 5 6 13 1 16 4 8 12 -7 7 -22 6 -49 -6 l-39 -17 120 -37 c66 -21 140 -48 164 -60 l44 -23 21 22 21 21 -30 25 c-16 14 -57 40 -90 59 -67 38 -225 99 -225 87z"/> <path d="M3680 2700 c-63 -16 -116 -29 -118 -29 -1 -1 13 -15 33 -33 26 -22 33 -33 23 -39 -7 -4 -9 -11 -5 -15 3 -4 13 -1 22 6 13 11 12 16 -6 41 -19 28 -19 29 -2 29 11 0 24 5 31 12 7 7 12 9 12 6 0 -3 25 0 55 7 31 7 57 9 60 5 4 -7 1 -36 -9 -68 -3 -9 -7 -37 -10 -61 -3 -24 -8 -46 -12 -50 -4 -3 -4 4 -1 17 5 20 3 22 -11 10 -10 -8 -13 -9 -9 -1 4 6 3 14 -3 18 -5 3 -10 0 -10 -7 0 -9 -3 -10 -8 -2 -7 11 -52 2 -52 -10 0 -3 8 -2 18 1 15 6 15 5 3 -11 -8 -9 -20 -15 -27 -12 -8 3 -11 0 -7 -10 3 -10 0 -12 -10 -8 -8 3 -18 0 -23 -7 -4 -8 -3 -10 4 -5 7 4 12 2 12 -3 0 -6 -8 -11 -17 -11 -9 0 -13 -3 -9 -7 3 -4 -11 -25 -31 -46 -21 -22 -32 -37 -25 -32 9 5 12 2 10 -8 -2 -9 0 -15 4 -14 11 3 50 -72 43 -82 -2 -5 2 -14 9 -20 9 -8 13 -25 10 -44 -2 -20 0 -27 5 -19 15 24 20 -23 15 -136 -6 -139 -7 -142 -18 -135 -5 3 -6 1 -3 -4 4 -6 0 -28 -9 -49 -9 -22 -16 -40 -15 -41 5 -11 -1 -23 -9 -18 -6 3 -7 -1 -4 -9 3 -9 2 -16 -4 -16 -9 0 -24 -39 -22 -56 1 -3 -6 -11 -16 -18 -11 -8 -14 -18 -9 -26 5 -8 4 -11 -2 -7 -5 4 -16 -6 -24 -21 -8 -15 -27 -42 -44 -60 -16 -18 -29 -39 -27 -45 2 -8 -2 -7 -10 2 -10 11 -10 14 0 18 6 3 12 11 12 19 0 9 5 12 10 9 6 -3 10 -1 10 5 0 6 12 27 26 46 15 19 25 37 22 39 -3 3 -16 -10 -29 -29 -30 -42 -104 -122 -150 -160 -19 -16 -27 -27 -19 -24 11 4 16 -1 18 -15 0 -12 -2 -17 -6 -11 -8 12 -46 28 -38 16 2 -4 -36 -29 -86 -55 -50 -26 -85 -47 -79 -47 7 0 29 9 50 20 21 10 42 16 46 12 5 -4 4 -1 0 7 -6 11 -4 13 9 8 12 -5 15 -3 10 6 -4 6 -3 9 1 4 5 -4 15 -1 24 6 25 22 51 28 44 12 -3 -8 -9 -12 -14 -9 -5 3 -9 1 -9 -4 0 -5 -13 -15 -30 -22 -16 -7 -30 -16 -30 -21 0 -5 -3 -8 -7 -8 -28 4 -55 -4 -71 -22 -11 -11 -30 -21 -43 -22 -13 0 -27 -5 -31 -11 -3 -5 -13 -2 -23 7 -21 22 -31 22 -14 0 12 -15 12 -16 -3 -10 -11 4 -15 2 -12 -7 6 -16 -83 -21 -102 -5 -16 13 -57 2 -48 -13 5 -8 -15 -9 -67 -5 -41 4 -140 7 -220 6 -148 0 -184 5 -172 24 3 5 1 7 -4 4 -7 -5 -12 20 -14 71 -4 68 -7 81 -31 107 -19 20 -26 36 -22 50 4 16 3 17 -5 5 -9 -13 -11 -13 -11 1 0 9 -7 22 -15 29 -9 7 -13 20 -10 29 3 8 3 12 -1 9 -7 -8 -45 60 -42 77 0 5 -7 27 -16 49 -13 29 -14 42 -6 50 8 8 9 6 5 -6 -4 -11 -2 -18 4 -18 6 0 11 -9 11 -20 0 -11 3 -20 8 -20 4 0 13 -18 19 -39 7 -22 24 -52 38 -67 14 -15 25 -32 25 -39 0 -14 38 -50 63 -58 10 -4 15 -12 12 -18 -4 -6 2 -13 14 -16 11 -3 19 -9 16 -13 -3 -5 -1 -11 5 -15 5 -3 10 -1 10 5 0 6 5 8 10 5 6 -4 8 -10 5 -15 -3 -4 2 -11 11 -14 10 -4 13 -2 9 7 -4 6 -1 5 7 -3 23 -28 72 -57 106 -65 19 -4 30 -11 25 -18 -4 -6 0 -8 10 -4 10 3 17 3 17 -1 0 -4 8 -8 18 -9 9 0 33 -4 52 -8 52 -10 127 -8 200 5 36 6 72 12 80 14 8 1 28 8 43 14 16 7 33 12 38 12 5 0 27 11 48 25 22 13 51 27 65 31 15 3 29 11 33 17 4 6 1 7 -7 2 -9 -6 -11 -4 -6 4 5 7 15 10 23 7 8 -3 11 -1 8 4 -3 6 3 10 13 10 11 0 27 12 37 26 9 14 22 23 30 21 7 -3 12 1 11 11 0 9 6 17 14 17 8 0 15 5 15 10 0 17 48 65 58 58 6 -3 7 -1 4 4 -4 6 0 16 8 23 8 7 13 16 10 20 -3 4 1 10 9 13 8 3 17 20 21 37 5 22 11 30 21 26 8 -3 12 -1 9 4 -9 14 24 72 37 64 7 -4 8 -3 4 5 -4 6 -11 9 -16 6 -5 -3 -3 7 5 22 8 15 15 37 15 49 0 11 4 24 9 30 11 11 21 145 11 139 -4 -3 -11 2 -14 10 -3 9 0 18 8 21 17 6 10 89 -11 121 -10 16 -12 27 -4 41 5 10 9 25 8 33 -3 18 -42 69 -52 69 -4 0 -3 -6 2 -12 16 -20 12 -50 -5 -43 -7 3 -25 -4 -39 -15 -14 -11 -29 -17 -34 -14 -5 3 -6 -2 -3 -10 3 -9 2 -16 -3 -16 -16 0 -34 -48 -22 -56 6 -3 9 -15 6 -25 -3 -11 -1 -17 4 -14 13 9 22 -40 16 -87 -6 -48 -33 -108 -48 -108 -6 0 -8 4 -5 8 3 5 -1 9 -8 9 -11 0 -12 -4 -3 -18 8 -14 5 -22 -19 -43 -16 -14 -37 -24 -46 -22 -10 2 -20 0 -23 -4 -11 -17 -85 -22 -108 -8 -12 8 -34 18 -49 21 -15 4 -30 16 -33 27 -3 11 -11 20 -16 20 -5 0 -9 5 -9 11 0 5 5 7 12 3 7 -4 8 -3 4 4 -4 6 -13 9 -20 6 -13 -5 -27 20 -31 51 -1 6 -5 22 -9 37 -9 31 0 82 13 74 4 -3 6 5 4 17 -3 14 2 29 11 36 9 8 16 19 16 27 0 7 5 16 12 20 7 5 8 3 3 -6 -5 -9 -4 -11 3 -6 7 4 12 14 12 23 0 10 6 13 16 9 8 -3 13 -2 10 3 -5 8 2 12 54 28 25 7 82 4 134 -9 l48 -12 44 48 c31 34 42 52 35 60 -5 6 -6 17 -2 25 6 10 12 9 25 -4 9 -9 16 -13 16 -8 0 11 -32 39 -68 57 -23 12 -29 12 -29 1 0 -7 7 -11 15 -7 10 3 13 1 8 -6 -4 -7 -2 -10 6 -7 9 4 14 -3 15 -17 1 -13 -1 -18 -5 -12 -12 19 -55 38 -112 50 -56 12 -84 9 -74 -7 3 -5 1 -9 -4 -9 -6 0 -12 6 -15 14 -3 8 -15 13 -29 11 -111 -17 -179 -61 -261 -165 -15 -19 -27 -30 -27 -24 0 5 9 20 20 32 12 12 17 22 13 22 -4 0 19 25 51 55 33 30 62 53 64 50 3 -2 22 5 44 16 21 11 43 17 47 14 5 -3 11 0 13 7 3 9 28 13 75 13 39 0 66 3 60 7 -38 24 -186 -6 -259 -53 -75 -49 -168 -170 -155 -204 3 -7 -3 -12 -16 -11 -11 1 -22 7 -25 15 -3 8 0 11 6 7 6 -4 8 2 5 16 -4 19 -3 20 7 8 9 -12 10 -11 5 8 -4 14 -2 22 6 22 7 0 9 3 6 7 -13 13 68 117 84 107 4 -2 11 1 15 7 5 8 2 10 -7 4 -8 -4 -1 4 16 18 16 14 33 23 37 20 5 -2 8 1 8 7 0 7 7 9 17 6 10 -4 14 -4 10 0 -12 12 71 45 114 46 21 0 37 3 35 7 -7 11 68 0 83 -13 12 -9 13 -8 6 3 -6 11 -4 13 9 8 10 -4 24 -7 32 -7 9 0 13 -3 11 -7 -3 -5 8 -9 25 -10 17 -1 51 -15 77 -30 25 -15 51 -28 56 -28 6 -1 23 12 38 28 28 28 29 28 50 10 l22 -18 -19 22 c-19 23 -19 23 4 43 13 11 28 20 34 20 6 0 4 5 -4 10 -11 7 -28 -4 -70 -45 l-55 -54 -47 29 c-98 61 -261 77 -368 34 -65 -25 -153 -87 -189 -132 -31 -40 -91 -157 -91 -179 0 -9 17 -13 53 -13 l54 0 23 49 c43 92 137 167 238 189 l42 10 0 -39 c0 -32 4 -39 19 -39 16 0 20 8 23 39 l3 38 54 -14 c30 -7 70 -23 89 -35 l34 -21 -40 -40 -40 -40 -48 17 c-26 9 -59 16 -74 16 -47 0 -117 -30 -154 -66 -56 -54 -70 -89 -71 -169 0 -58 5 -78 27 -116 90 -153 305 -154 395 -2 24 40 28 59 28 118 0 44 -6 81 -16 99 -15 27 -15 29 19 67 20 21 38 39 42 39 10 0 47 -88 59 -138 l9 -42 -33 0 c-33 0 -46 -13 -38 -37 3 -7 19 -13 38 -13 l33 0 -5 -47 c-21 -227 -185 -459 -403 -572 -118 -61 -207 -84 -330 -85 -124 0 -204 22 -297 84 -60 39 -138 106 -138 118 -1 4 -18 42 -38 84 -65 133 -82 272 -52 420 10 48 15 113 13 183 l-3 109 -42 -86 c-55 -114 -73 -181 -80 -308 -4 -79 -1 -128 11 -190 19 -92 76 -222 125 -284 26 -33 31 -47 31 -93 0 -65 24 -121 54 -128 30 -6 368 -18 456 -16 327 7 657 263 767 596 23 69 27 97 27 210 1 139 -10 186 -62 269 -29 47 -24 60 55 137 l54 54 35 -37 34 -38 1 33 c0 17 8 78 18 135 11 66 13 102 6 101 -5 0 -62 -13 -125 -29z m-125 -396 c-1 -14 -6 -28 -10 -32 -5 -4 -5 1 -2 11 4 11 1 17 -10 17 -12 0 -13 3 -4 13 6 8 8 17 4 21 -4 4 0 4 9 1 10 -4 15 -16 13 -31z m-1245 -42 c0 -15 -2 -15 -10 -2 -5 8 -10 10 -10 4 0 -6 3 -14 7 -18 11 -11 11 -49 1 -70 -7 -13 -7 -16 1 -12 14 9 14 4 0 -31 -6 -15 -14 -46 -16 -68 -3 -22 -9 -41 -14 -43 -5 -2 -9 -8 -9 -13 0 -6 3 -8 8 -6 4 3 7 -15 7 -39 0 -24 -4 -44 -8 -44 -5 0 -4 -6 2 -14 7 -8 11 -29 10 -47 0 -19 2 -43 4 -54 11 -42 56 -146 75 -172 33 -49 35 -59 3 -23 -40 46 -94 150 -117 225 -22 75 -25 267 -5 340 22 82 71 141 71 87z m587 -24 c-3 -8 -6 -5 -6 6 -1 11 2 17 5 13 3 -3 4 -12 1 -19z m646 -135 c-7 -2 -19 -2 -25 0 -7 3 -2 5 12 5 14 0 19 -2 13 -5z m-1168 -533 c10 -11 16 -20 13 -20 -3 0 -13 9 -23 20 -10 11 -16 20 -13 20 3 0 13 -9 23 -20z m1033 -28 c-10 -2 -18 -9 -18 -16 0 -7 -11 -22 -24 -33 -20 -17 -26 -19 -30 -7 -3 8 -1 14 3 14 5 0 22 13 37 29 15 17 33 27 38 23 7 -4 4 -8 -6 -10z m-503 -242 c-3 -5 -10 -10 -16 -10 -5 0 -9 5 -9 10 0 6 7 10 16 10 8 0 12 -4 9 -10z"/> <path d="M3391 2716 c2 -2 15 -9 29 -15 24 -11 24 -11 6 3 -16 13 -49 24 -35 12z"/> <path d="M3530 2670 c6 -11 13 -20 16 -20 2 0 0 9 -6 20 -6 11 -13 20 -16 20 -2 0 0 -9 6 -20z"/> <path d="M2598 2619 c-15 -8 -18 -25 -18 -102 0 -98 7 -117 46 -117 36 0 47 25 49 111 1 107 -23 140 -77 108z m59 -84 c0 -44 -4 -62 -11 -58 -7 4 -6 1 1 -8 7 -8 8 -20 4 -28 -14 -21 -60 -5 -61 22 0 5 6 5 13 1 8 -6 8 -3 -1 9 -17 20 -12 123 6 120 7 -2 12 1 12 6 0 5 8 7 19 4 16 -4 18 -14 18 -68z"/> <path d="M3655 2584 c-9 -15 -12 -23 -6 -20 11 7 35 46 28 46 -3 0 -12 -12 -22 -26z"/> <path d="M2334 2538 l-19 -23 23 19 c21 18 27 26 19 26 -2 0 -12 -10 -23 -22z"/> <path d="M2950 2536 c7 -7 13 -7 20 0 6 6 3 10 -10 10 -13 0 -16 -4 -10 -10z"/> <path d="M2360 2529 c0 -5 5 -7 10 -4 6 3 10 8 10 11 0 2 -4 4 -10 4 -5 0 -10 -5 -10 -11z"/> <path d="M3600 2531 c0 -6 4 -13 10 -16 6 -3 7 1 4 9 -7 18 -14 21 -14 7z"/> <path d="M2829 2513 l-107 -4 -4 -51 c-7 -63 -40 -98 -94 -98 -52 0 -84 39 -84 101 l0 49 -59 0 c-49 0 -65 -4 -88 -24 -28 -24 -28 -26 -31 -150 l-4 -126 197 2 196 3 17 50 c25 74 69 143 128 203 29 28 50 51 46 50 -4 -1 -55 -4 -113 -5z m-296 -120 c5 -7 5 -18 1 -25 -5 -7 -3 -8 5 -3 7 4 22 -2 35 -14 15 -14 29 -19 41 -15 14 6 16 4 10 -7 -5 -8 2 -5 15 6 14 12 20 14 15 5 -4 -8 3 -5 17 8 13 12 30 22 36 22 7 0 12 7 12 16 0 8 3 13 8 11 4 -3 8 15 9 40 1 25 4 47 6 50 3 2 35 3 71 1 66 -3 67 -3 51 -23 -9 -11 -13 -14 -9 -6 5 9 3 12 -4 7 -7 -4 -12 -13 -12 -20 0 -7 -9 -22 -19 -33 -11 -12 -27 -38 -35 -58 -12 -28 -20 -36 -32 -31 -14 5 -15 4 -4 -9 10 -12 10 -19 2 -27 -7 -7 -12 -21 -12 -32 0 -20 -5 -21 -172 -21 l-173 1 -3 110 c-3 125 1 133 65 141 21 3 40 7 43 10 3 3 10 -17 15 -44 6 -26 14 -54 18 -60z"/> <path d="M2480 2381 c0 -6 4 -13 10 -16 6 -3 7 1 4 9 -7 18 -14 21 -14 7z"/> <path d="M3320 2493 c8 -3 24 -10 35 -15 20 -9 20 -9 1 6 -11 9 -27 16 -35 15 -14 0 -14 -1 -1 -6z"/> <path d="M3652 2417 c-27 -28 -27 -32 -4 -65 11 -15 27 -52 38 -82 10 -30 29 -66 43 -80 13 -14 37 -45 53 -70 l29 -45 -6 40 c-15 90 -59 205 -114 295 l-18 30 -21 -23z m49 -67 c12 0 12 -37 -1 -45 -5 -3 -10 1 -10 9 0 27 -23 66 -34 59 -6 -4 -4 1 4 11 13 17 15 17 23 -8 5 -14 13 -26 18 -26z m33 -81 c-3 -5 0 -9 6 -9 7 0 10 -7 7 -15 -4 -8 -2 -17 3 -20 6 -3 15 -16 22 -28 10 -20 10 -21 -5 -8 -10 7 -17 10 -17 5 0 -4 -6 1 -14 11 -8 11 -11 26 -8 34 3 8 1 12 -5 8 -16 -10 -24 33 -11 57 11 20 11 20 20 -3 4 -12 6 -27 2 -32z"/> <path d="M3347 2259 c-9 -6 -22 -7 -27 -4 -5 3 -18 1 -28 -4 -10 -5 -30 -11 -45 -13 -30 -4 -40 -12 -43 -34 -2 -9 3 -14 11 -10 9 3 12 -3 10 -19 -3 -31 -26 -60 -35 -45 -3 6 -17 12 -29 15 -13 2 -29 9 -36 15 -9 7 -16 6 -25 -5 -7 -8 -9 -15 -5 -15 5 0 1 -8 -9 -19 -16 -17 -15 -20 14 -51 16 -18 30 -35 30 -39 0 -4 13 -14 28 -23 26 -15 31 -16 50 -2 12 8 29 14 38 12 10 -2 18 5 20 16 2 14 0 16 -9 7 -6 -6 -15 -11 -20 -11 -6 0 5 13 23 29 22 19 42 28 64 27 18 -1 36 5 43 14 14 20 28 164 15 156 -6 -3 -12 -2 -14 3 -2 6 -10 6 -21 0z m18 -61 c-15 -102 -15 -101 -37 -81 -19 17 -21 16 -80 -45 l-60 -62 -46 45 c-44 44 -45 45 -27 65 l18 20 29 -27 29 -28 39 40 c42 43 48 60 25 69 -28 11 -15 22 38 33 84 16 79 18 72 -29z"/> <path d="M3811 2254 c0 -11 3 -14 6 -6 3 7 2 16 -1 19 -3 4 -6 -2 -5 -13z"/> <path d="M3590 2230 c6 -11 13 -20 16 -20 2 0 0 9 -6 20 -6 11 -13 20 -16 20 -2 0 0 -9 6 -20z"/> <path d="M2360 2038 l0 -133 147 3 c101 2 150 7 155 15 4 7 8 60 8 119 0 96 -2 108 -19 118 -11 5 -81 10 -155 10 l-136 0 0 -132z m275 99 c18 -6 20 -17 23 -89 2 -59 0 -79 -8 -68 -12 19 -13 0 0 -20 15 -24 -8 -30 -137 -30 l-123 0 0 103 c0 57 2 106 4 108 7 7 219 3 241 -4z"/> <path d="M2735 2154 c-20 -20 -22 -216 -2 -232 15 -12 39 -15 145 -13 78 1 83 2 94 26 9 19 8 38 -2 80 -7 31 -14 77 -14 103 l-1 47 -102 2 c-80 1 -106 -1 -118 -13z m196 -18 c2 -37 10 -85 19 -110 15 -45 12 -84 -7 -94 -25 -13 -193 -11 -195 2 -11 76 -10 187 2 201 13 16 180 16 181 1z"/> <path d="M2828 2122 c11 -7 8 -11 -10 -15 -12 -4 -25 -7 -28 -8 -12 -4 -30 -64 -24 -78 8 -19 11 -27 13 -42 0 -5 6 -7 11 -4 6 3 10 1 10 -5 0 -6 5 -8 10 -5 6 3 10 1 10 -4 0 -13 48 -9 78 8 12 6 22 19 22 27 0 8 4 13 8 10 5 -3 6 10 3 29 -7 37 -43 85 -65 85 -8 0 -23 3 -33 6 -13 4 -14 3 -5 -4z m66 -44 c22 -31 20 -74 -4 -91 -11 -8 -17 -17 -14 -20 4 -4 -9 -2 -27 3 -37 10 -69 42 -69 68 0 9 10 26 22 39 28 30 72 30 92 1z"/> <path d="M2813 2054 c-9 -24 10 -49 37 -49 31 0 48 28 31 49 -17 21 -60 21 -68 0z m49 -11 c-6 -2 -10 -9 -6 -14 3 -5 -1 -9 -9 -9 -7 0 -14 7 -14 15 0 9 9 15 21 14 12 0 15 -3 8 -6z"/> <path d="M3714 2034 c1 -76 -4 -162 -12 -209 -13 -71 -26 -315 -17 -315 10 0 69 121 91 188 55 168 38 333 -45 441 -18 24 -19 23 -17 -105z m54 9 c26 -89 34 -133 27 -150 -3 -10 -8 -40 -11 -68 -6 -82 -25 -151 -51 -191 -7 -11 -10 -24 -6 -29 5 -4 2 -4 -6 0 -11 6 -13 4 -8 -8 3 -9 1 -19 -6 -23 -7 -4 -9 -4 -5 1 4 4 4 13 -1 19 -6 7 0 37 15 81 14 39 28 88 32 110 9 53 9 209 -1 263 -9 52 5 48 21 -5z m-31 -55 c-3 -7 -5 -2 -5 12 0 14 2 19 5 13 2 -7 2 -19 0 -25z m3 -75 c-11 -17 -11 -17 -6 0 3 10 6 24 7 30 0 9 2 9 5 0 3 -7 0 -20 -6 -30z m2 -75 c-8 -8 -9 -4 -5 13 4 13 8 18 11 10 2 -7 -1 -18 -6 -23z m-11 -50 c-3 -21 -6 -26 -9 -15 -3 17 3 47 11 47 2 0 1 -15 -2 -32z m-24 -80 c-3 -8 -6 -5 -6 6 -1 11 2 17 5 13 3 -3 4 -12 1 -19z"/> <path d="M3043 1908 c1 -15 6 -23 11 -18 4 4 4 16 -2 26 -9 16 -10 14 -9 -8z"/> <path d="M3416 1917 c3 -10 9 -15 12 -12 3 3 0 11 -7 18 -10 9 -11 8 -5 -6z"/> <path d="M3585 1859 c-4 -6 -5 -12 -2 -15 2 -3 7 2 10 11 7 17 1 20 -8 4z"/> <path d="M2360 1804 c0 -41 8 -70 31 -117 16 -34 35 -67 41 -74 14 -17 209 -18 226 -1 16 16 16 220 0 236 -8 8 -57 12 -155 12 l-143 0 0 -56z m288 18 c13 -26 15 -139 3 -147 -8 -4 -8 -12 -1 -25 13 -24 0 -29 -103 -31 -69 -1 -88 2 -105 17 -12 10 -22 24 -22 30 0 6 -7 25 -15 40 -8 16 -15 52 -15 81 l0 52 125 0 c109 1 125 -1 133 -17z"/> <path d="M2730 1841 c-14 -28 -13 -214 2 -229 8 -8 49 -12 120 -12 129 0 128 -1 128 130 0 132 2 130 -130 130 -98 0 -110 -2 -120 -19z m44 -13 c-6 -10 -4 -10 7 -3 8 6 27 12 43 14 21 2 26 -1 21 -11 -6 -10 -5 -11 6 0 19 17 78 15 85 -3 4 -8 11 -12 17 -8 6 4 7 1 3 -6 -6 -10 -12 -9 -25 1 -9 7 -8 4 4 -7 21 -21 24 -53 9 -89 -5 -14 -4 -17 5 -12 15 10 11 -25 -4 -36 -6 -5 -4 -8 4 -8 8 0 2 -9 -13 -21 -30 -24 -58 -22 -62 4 -1 9 1 15 4 13 12 -7 41 19 51 46 12 31 4 68 -18 86 -13 11 -13 12 -1 6 11 -5 10 -1 -3 13 -17 20 -21 20 -53 7 -22 -9 -34 -10 -34 -4 0 6 -5 8 -10 5 -6 -4 -8 -11 -5 -16 6 -8 -8 -13 -27 -10 -4 0 -4 -7 -1 -16 5 -12 3 -14 -8 -8 -8 4 -11 5 -7 0 4 -4 3 -16 -3 -26 -7 -15 -5 -24 10 -41 11 -11 18 -25 15 -29 -5 -9 14 -22 41 -26 40 -7 34 -20 -10 -21 -65 -1 -73 12 -71 110 1 82 8 108 27 108 6 0 7 -6 3 -12z m121 -18 c3 -5 1 -10 -4 -10 -6 0 -11 5 -11 10 0 6 2 10 4 10 3 0 8 -4 11 -10z m-2 -38 c17 -15 23 -58 9 -78 -15 -23 -50 -34 -77 -24 -51 19 -53 100 -3 119 26 9 45 5 71 -17z m57 -142 c0 -5 -5 -10 -11 -10 -5 0 -7 5 -4 10 3 6 8 10 11 10 2 0 4 -4 4 -10z"/> <path d="M2760 1656 c0 -2 8 -10 18 -17 15 -13 16 -12 3 4 -13 16 -21 21 -21 13z"/> <path d="M2905 1649 c-4 -6 -5 -12 -2 -15 2 -3 7 2 10 11 7 17 1 20 -8 4z"/> <path d="M2828 1759 c-33 -19 -15 -69 24 -69 15 0 38 27 38 44 0 7 -31 36 -38 36 -4 0 -15 -5 -24 -11z m32 -28 c0 -5 -6 -11 -13 -14 -8 -3 -14 1 -14 9 0 8 6 14 14 14 7 0 13 -4 13 -9z"/> <path d="M3039 1844 c-15 -19 -22 -184 -9 -220 9 -23 12 -24 124 -24 95 0 115 3 120 16 3 9 6 60 6 115 l0 99 -55 0 c-31 0 -72 7 -92 15 -46 19 -77 19 -94 -1z m109 -23 c11 -6 42 -12 69 -13 l48 -2 3 -76 c4 -104 -2 -111 -103 -112 -127 -2 -124 -5 -122 113 2 73 6 102 16 108 14 9 53 1 89 -18z"/> <path d="M3341 1846 c-8 -9 -11 -48 -9 -111 l3 -96 37 48 c20 26 52 76 72 111 l35 62 -63 0 c-42 0 -67 -5 -75 -14z m99 -20 c0 -8 -5 -18 -11 -21 -5 -4 -15 -18 -20 -32 -6 -17 -14 -23 -26 -19 -13 5 -14 4 -3 -9 8 -10 9 -15 1 -15 -6 0 -11 -7 -11 -15 0 -8 -4 -15 -9 -15 -11 0 -18 95 -9 121 9 24 88 28 88 5z"/> <path d="M3540 1768 c-25 -39 -31 -58 -15 -51 8 3 12 9 9 14 -3 5 2 16 10 25 9 8 16 20 16 25 0 14 -4 11 -20 -13z"/> <path d="M3623 1723 c-62 -150 -270 -351 -433 -418 -25 -10 -48 -21 -52 -24 -4 -3 97 -5 225 -3 224 3 233 4 254 25 21 21 22 31 25 240 2 119 2 217 0 217 -2 0 -10 -17 -19 -37z m-19 -160 c-11 -10 -15 -15 -10 -10 6 4 13 7 16 7 12 0 2 -231 -11 -246 -10 -12 -44 -14 -183 -13 -94 2 -165 4 -158 7 7 2 9 9 6 14 -4 6 -2 8 3 5 6 -4 23 3 37 14 15 12 33 19 41 16 7 -3 19 2 27 11 9 11 10 14 1 8 -7 -4 -13 -3 -13 2 0 5 13 15 30 22 16 7 28 15 27 19 -1 3 2 7 6 8 5 1 17 11 26 22 18 21 37 29 26 12 -3 -5 -1 -13 5 -16 6 -4 10 -3 9 2 -1 4 0 11 1 16 1 4 3 11 4 16 3 21 48 71 58 65 7 -4 8 -3 4 4 -4 7 5 30 21 52 l28 39 9 -29 c7 -24 5 -33 -10 -47z"/> <path d="M3583 1585 c0 -8 4 -12 9 -9 5 3 6 10 3 15 -9 13 -12 11 -12 -6z"/> <path d="M2660 1576 c0 -2 7 -7 16 -10 8 -3 12 -2 9 4 -6 10 -25 14 -25 6z"/> <path d="M2512 1527 c29 -25 138 -87 153 -87 11 0 4 88 -8 98 -6 6 -50 12 -95 14 l-84 3 34 -28z m138 -17 c8 -14 8 -20 0 -20 -6 0 -8 -4 -5 -10 3 -6 -1 -7 -9 -4 -9 3 -13 11 -10 16 4 6 -2 7 -16 3 -14 -4 -20 -3 -16 3 3 5 -2 9 -11 8 -9 0 -18 5 -20 12 -3 8 8 12 36 12 30 0 43 -5 51 -20z"/> <path d="M2732 1538 c-7 -7 -12 -35 -12 -64 l0 -51 58 -6 c31 -3 86 -2 122 3 36 5 68 10 73 10 11 0 9 78 -3 101 -10 17 -22 19 -118 19 -71 0 -112 -4 -120 -12z m52 -21 c-5 -8 -3 -8 7 1 20 19 146 16 157 -4 12 -21 3 -61 -14 -68 -19 -7 -184 -10 -190 -3 -4 3 -3 23 1 44 4 29 11 39 26 40 12 1 17 -3 13 -10z"/> <path d="M3035 1539 c-6 -9 -13 -89 -8 -89 10 0 109 45 153 69 l55 31 -97 0 c-58 0 -99 -4 -103 -11z m110 -8 c16 -1 14 -5 -12 -21 -19 -11 -40 -17 -49 -13 -11 4 -15 2 -11 -4 7 -11 -22 -28 -31 -18 -3 3 1 5 9 5 12 0 12 2 -1 10 -22 14 17 49 50 44 14 -1 34 -3 45 -3z"/> <path d="M3736 1528 c3 -5 10 -6 15 -3 13 9 11 12 -6 12 -8 0 -12 -4 -9 -9z"/> <path d="M2404 1480 c0 -13 4 -16 10 -10 7 7 7 13 0 20 -6 6 -10 3 -10 -10z"/> <path d="M2433 1455 c0 -7 6 -11 14 -8 7 3 13 6 13 8 0 2 -6 5 -13 8 -8 3 -14 -1 -14 -8z"/> <path d="M3070 1360 c-8 -5 -12 -11 -9 -14 3 -3 14 1 25 9 21 16 8 20 -16 5z"/> <path d="M2981 1331 c-8 -5 -21 -7 -29 -3 -10 3 -13 1 -8 -6 9 -16 18 -15 42 3 21 16 17 20 -5 6z"/> <path d="M3656 1321 c-4 -5 -2 -12 3 -15 5 -4 12 -2 15 3 4 5 2 12 -3 15 -5 4 -12 2 -15 -3z"/> <path d="M3035 1261 c-6 -5 -40 -25 -78 -45 l-67 -35 72 -55 c71 -53 73 -54 76 -31 3 20 11 25 40 30 74 11 190 44 245 69 30 14 61 26 66 26 6 0 11 3 11 8 0 8 -300 5 -338 -4 -32 -7 -17 -24 18 -20 16 2 27 -1 24 -6 -3 -5 -11 -7 -17 -5 -7 2 -22 0 -34 -4 -15 -5 -23 -5 -23 2 0 6 -8 9 -17 7 -10 -1 -18 2 -18 7 0 6 6 9 13 9 6 -1 12 2 12 7 0 5 7 9 15 9 8 0 15 9 15 20 0 22 -2 24 -15 11z m110 -51 c3 -6 -1 -7 -9 -4 -18 7 -21 14 -7 14 6 0 13 -4 16 -10z m159 1 c3 -5 -1 -12 -10 -15 -10 -4 -13 -2 -8 6 4 6 -3 4 -17 -5 -13 -9 -30 -17 -39 -17 -8 0 -28 -7 -44 -15 -16 -9 -37 -13 -47 -10 -9 3 -20 1 -24 -5 -3 -5 -19 -10 -35 -10 -41 0 -60 -9 -53 -27 5 -13 3 -13 -16 -2 -11 8 -21 17 -21 21 0 5 -5 8 -11 8 -6 0 -23 10 -37 21 l-27 22 60 -6 c59 -6 186 11 235 31 31 13 87 15 94 3z"/> <path d="M2567 1239 c7 -7 15 -10 18 -7 3 3 -2 9 -12 12 -14 6 -15 5 -6 -5z"/> <path d="M2610 1234 c0 -18 263 -115 276 -101 9 8 -57 47 -69 41 -8 -6 -8 -3 1 8 7 9 27 20 43 23 55 12 29 20 -72 21 -56 1 -119 5 -140 8 -21 3 -39 4 -39 0z m193 -50 c-4 -10 -10 -11 -24 -3 -24 13 -24 14 5 15 17 1 23 -2 19 -12z"/> </g> </svg>